<svg width="26" height="25" viewBox="0 0 26 25" fill="none" xmlns="http://www.w3.org/2000/svg">
<path fill-rule="evenodd" clip-rule="evenodd" d="M4.72727 0.275879C3.47352 0.275879 2.27112 0.738081 1.38459 1.56081C0.498051 2.38353 0 3.49939 0 4.6629V20.0175C0 21.181 0.498051 22.2968 1.38459 23.1196C2.27112 23.9423 3.47352 24.4045 4.72727 24.4045H21.2727C22.5265 24.4045 23.7289 23.9423 24.6154 23.1196C25.502 22.2968 26 21.181 26 20.0175V4.6629C26 3.49939 25.502 2.38353 24.6154 1.56081C23.7289 0.738081 22.5265 0.275879 21.2727 0.275879H4.72727ZM6.98455 6.7577V7.15582C6.98455 8.54212 7.436 10.2048 8.28455 11.6251C9.02555 12.8677 10.0455 13.8844 11.2816 14.3911V6.7577H14.7195V10.4889C15.4925 10.2673 16.2772 9.9021 16.9012 9.41185C17.6635 8.81411 18.1575 8.05406 18.1575 7.15582V6.7566H21.5954V7.15582C21.5954 9.24733 20.3367 11.0263 18.6278 12.1987C19.5219 12.733 20.3202 13.3939 20.9938 14.1575C21.8341 15.1226 22.4545 16.2896 22.4545 17.5245V17.9238H19.0296L19.0178 17.5377C18.9871 16.6603 18.3052 15.8498 17.3006 15.2005C16.5157 14.6994 15.6421 14.3301 14.7195 14.1092V17.9238H13C10.0726 17.9238 7.70073 16.3839 6.07809 14.2957C4.45545 12.2119 3.54545 9.53688 3.54545 7.15582V6.7566L6.98455 6.7577Z" fill="white" fill-opacity="0.5"/>
</svg>
