<svg width="108" height="38" viewBox="0 0 108 38" fill="none" xmlns="http://www.w3.org/2000/svg">
<path d="M68.5502 10.9321L62.6513 5.0318L52.749 14.9342L42.8466 5.0318L36.9463 10.9321L46.8487 20.8344L36.9463 30.7368L42.8466 36.6364L52.749 26.734L62.6513 36.6364L68.5502 30.7368L58.6485 20.8344L68.5502 10.9321Z" fill="white"/>
<path d="M108 35.3649H68.4566L88.2283 5.81464L108 35.3649ZM84.0787 27.0211H92.3793L88.229 20.8186L84.0787 27.0211Z" fill="white"/>
<path d="M16.7014 37.3753C7.49262 37.3753 0 29.8834 0 20.6739C0 11.4645 7.4919 3.9726 16.7014 3.9726C25.9108 3.9726 33.4027 11.4645 33.4027 20.6739C33.4027 29.8834 25.9101 37.3753 16.7014 37.3753ZM16.7014 12.3164C12.0934 12.3164 8.34384 16.066 8.34384 20.6739C8.34384 25.2819 12.0934 29.0315 16.7014 29.0315C21.3093 29.0315 25.0589 25.2819 25.0589 20.6739C25.0589 16.066 21.3093 12.3164 16.7014 12.3164Z" fill="white"/>
<path d="M20.959 0H12.4431V19.5392H20.959V0Z" fill="white"/>
</svg>
